<svg xmlns="http://www.w3.org/2000/svg" width="900" height="514" viewBox="0 0 900 514" role="img" aria-label="Timeline of my upstream pull requests"><title>Timeline of my upstream pull requests</title><defs><pattern id="grid" width="24" height="24" patternUnits="userSpaceOnUse"><path d="M24 0H0V24" fill="none" stroke="#1f2a40" stroke-width=".5" opacity=".45"/></pattern>
<pattern id="stripe" width="8" height="8" patternUnits="userSpaceOnUse" patternTransform="rotate(45)">
<rect width="8" height="8" fill="#3fb950" fill-opacity=".18"/><rect width="3" height="8" fill="#3fb950" fill-opacity=".55"/>
<animateTransform attributeName="patternTransform" type="translate" from="0 0" to="8 0" dur="0.8s" additive="sum" repeatCount="indefinite"/></pattern>
<style>.mono{font-family:ui-monospace,SFMono-Regular,'SF Mono',Menlo,Consolas,'Liberation Mono',monospace}
.in{opacity:0;animation:in .6s ease-out forwards}
@keyframes in{from{opacity:0;transform:translateY(6px)}to{opacity:1;transform:none}}
.grow{transform-box:fill-box;transform-origin:left;transform:scaleX(0);animation:grow 1s cubic-bezier(.2,.8,.2,1) forwards}
@keyframes grow{to{transform:scaleX(1)}}
.ping{transform-box:fill-box;transform-origin:center;animation:ping 1.8s ease-out infinite}
@keyframes ping{from{opacity:.8;transform:scale(1)}to{opacity:0;transform:scale(3)}}
</style></defs><rect width="900" height="514" rx="14" fill="#070a12"/><rect width="900" height="514" rx="14" fill="url(#grid)"/><rect x=".5" y=".5" width="899" height="513" rx="14" fill="none" stroke="#1f2a40"/><g class="mono"><circle cx="24" cy="22" r="5" fill="#ff5f57"/><circle cx="41" cy="22" r="5" fill="#febc2e"/><circle cx="58" cy="22" r="5" fill="#28c840"/><text x="450.0" y="26" font-size="11.5" text-anchor="middle" fill="#8592ad">git log --graph --since=journey-start</text></g><line x1="0" y1="42" x2="900" y2="42" stroke="#1f2a40"/><line x1="170.0" y1="74" x2="170.0" y2="474" stroke="#1f2a40" stroke-width="1"/><text x="170.0" y="68" font-size="10" text-anchor="middle" fill="#4a5672" class="mono">Sep 21</text><line x1="213.8" y1="74" x2="213.8" y2="474" stroke="#1f2a40" stroke-width="0.4"/><line x1="257.5" y1="74" x2="257.5" y2="474" stroke="#1f2a40" stroke-width="1"/><text x="257.5" y="68" font-size="10" text-anchor="middle" fill="#4a5672" class="mono">Sep 23</text><line x1="301.3" y1="74" x2="301.3" y2="474" stroke="#1f2a40" stroke-width="0.4"/><line x1="345.0" y1="74" x2="345.0" y2="474" stroke="#1f2a40" stroke-width="1"/><text x="345.0" y="68" font-size="10" text-anchor="middle" fill="#4a5672" class="mono">Sep 25</text><line x1="388.8" y1="74" x2="388.8" y2="474" stroke="#1f2a40" stroke-width="0.4"/><line x1="432.5" y1="74" x2="432.5" y2="474" stroke="#1f2a40" stroke-width="1"/><text x="432.5" y="68" font-size="10" text-anchor="middle" fill="#4a5672" class="mono">Sep 27</text><line x1="476.3" y1="74" x2="476.3" y2="474" stroke="#1f2a40" stroke-width="0.4"/><line x1="520.1" y1="74" x2="520.1" y2="474" stroke="#1f2a40" stroke-width="1"/><text x="520.1" y="68" font-size="10" text-anchor="middle" fill="#4a5672" class="mono">Sep 29</text><line x1="563.8" y1="74" x2="563.8" y2="474" stroke="#1f2a40" stroke-width="0.4"/><line x1="607.6" y1="74" x2="607.6" y2="474" stroke="#1f2a40" stroke-width="1"/><text x="607.6" y="68" font-size="10" text-anchor="middle" fill="#4a5672" class="mono">Oct 01</text><line x1="651.3" y1="74" x2="651.3" y2="474" stroke="#1f2a40" stroke-width="0.4"/><line x1="695.1" y1="74" x2="695.1" y2="474" stroke="#1f2a40" stroke-width="1"/><text x="695.1" y="68" font-size="10" text-anchor="middle" fill="#4a5672" class="mono">Oct 03</text><line x1="738.8" y1="74" x2="738.8" y2="474" stroke="#1f2a40" stroke-width="0.4"/><line x1="782.6" y1="74" x2="782.6" y2="474" stroke="#1f2a40" stroke-width="1"/><text x="782.6" y="68" font-size="10" text-anchor="middle" fill="#4a5672" class="mono">Oct 05</text><line x1="826.4" y1="74" x2="826.4" y2="474" stroke="#1f2a40" stroke-width="0.4"/><rect x="12" y="85" width="876" height="36" rx="6" fill="#101828" fill-opacity=".45"/><text x="28" y="102" font-size="12" fill="#f5a623" class="mono">workbook</text><g class="mono"><rect x="195.9" y="95" width="42.5" height="14" rx="7" fill="#a371f7" stroke="#a371f7" class="grow" style="animation-delay:0.15s"/><circle cx="195.9" cy="102" r="3" fill="#e6edf3"/><circle cx="238.4" cy="102" r="4.5" fill="#070a12" stroke="#a371f7" stroke-width="2"/><text x="247.4" y="106" font-size="10.5" text-anchor="start" fill="#8592ad">#11 · merged in 23h</text></g><text x="28" y="149" font-size="12" fill="#f5a623" class="mono">DevForge</text><g class="mono"><rect x="265.5" y="131" width="12.0" height="14" rx="7" fill="#a371f7" stroke="#a371f7" class="grow" style="animation-delay:0.23s"/><circle cx="265.5" cy="138" r="3" fill="#e6edf3"/><circle cx="277.5" cy="138" r="4.5" fill="#070a12" stroke="#a371f7" stroke-width="2"/><text x="286.5" y="142" font-size="10.5" text-anchor="start" fill="#8592ad">#146 · merged in 12m</text></g><g class="mono"><rect x="269.0" y="153" width="12.0" height="14" rx="7" fill="#a371f7" stroke="#a371f7" class="grow" style="animation-delay:0.31s"/><circle cx="269.0" cy="160" r="3" fill="#e6edf3"/><circle cx="281.0" cy="160" r="4.5" fill="#070a12" stroke="#a371f7" stroke-width="2"/><text x="290.0" y="164" font-size="10.5" text-anchor="start" fill="#8592ad">#152 · merged in 10m</text></g><rect x="12" y="179" width="876" height="102" rx="6" fill="#101828" fill-opacity=".45"/><text x="28" y="229" font-size="12" fill="#f5a623" class="mono">nvm</text><g class="mono"><rect x="615.9" y="189" width="244.1" height="14" rx="7" fill="url(#stripe)" stroke="#3fb950" class="grow" style="animation-delay:0.39s"/><circle cx="615.9" cy="196" r="3" fill="#e6edf3"/><text x="607.9" y="200" font-size="10.5" text-anchor="end" fill="#8592ad">#3937 · open 6d</text></g><g class="mono"><rect x="706.9" y="211" width="153.1" height="14" rx="7" fill="url(#stripe)" stroke="#3fb950" class="grow" style="animation-delay:0.47s"/><circle cx="706.9" cy="218" r="3" fill="#e6edf3"/><text x="698.9" y="222" font-size="10.5" text-anchor="end" fill="#8592ad">#3941 · open 3d</text></g><g class="mono"><rect x="732.1" y="233" width="127.9" height="14" rx="7" fill="url(#stripe)" stroke="#3fb950" class="grow" style="animation-delay:0.55s"/><circle cx="732.1" cy="240" r="3" fill="#e6edf3"/><text x="724.1" y="244" font-size="10.5" text-anchor="end" fill="#8592ad">#3944 · open 3d</text></g><g class="mono"><rect x="733.2" y="255" width="126.8" height="14" rx="7" fill="url(#stripe)" stroke="#3fb950" class="grow" style="animation-delay:0.63s"/><circle cx="733.2" cy="262" r="3" fill="#e6edf3"/><text x="725.2" y="266" font-size="10.5" text-anchor="end" fill="#8592ad">#3945 · open 3d</text></g><text x="28" y="298" font-size="12" fill="#f5a623" class="mono">avenx-js</text><g class="mono"><rect x="737.4" y="291" width="17.7" height="14" rx="7" fill="#a371f7" stroke="#a371f7" class="grow" style="animation-delay:0.71s"/><circle cx="737.4" cy="298" r="3" fill="#e6edf3"/><circle cx="755.1" cy="298" r="4.5" fill="#070a12" stroke="#a371f7" stroke-width="2"/><text x="729.4" y="302" font-size="10.5" text-anchor="end" fill="#8592ad">#1411 · merged in 10h</text></g><rect x="12" y="317" width="876" height="36" rx="6" fill="#101828" fill-opacity=".45"/><text x="28" y="334" font-size="12" fill="#f5a623" class="mono">libredb-studio</text><g class="mono"><rect x="738.5" y="327" width="25.8" height="14" rx="7" fill="#a371f7" stroke="#a371f7" class="grow" style="animation-delay:0.79s"/><circle cx="738.5" cy="334" r="3" fill="#e6edf3"/><circle cx="764.3" cy="334" r="4.5" fill="#070a12" stroke="#a371f7" stroke-width="2"/><text x="730.5" y="338" font-size="10.5" text-anchor="end" fill="#8592ad">#1302 · merged in 14h</text></g><g class="mono"><rect x="815.6" y="327" width="32.3" height="14" rx="7" fill="#a371f7" stroke="#a371f7" class="grow" style="animation-delay:0.87s"/><circle cx="815.6" cy="334" r="3" fill="#e6edf3"/><circle cx="847.8" cy="334" r="4.5" fill="#070a12" stroke="#a371f7" stroke-width="2"/><text x="807.6" y="338" font-size="10.5" text-anchor="end" fill="#8592ad">#1545 · merged in 18h</text></g><text x="28" y="370" font-size="12" fill="#f5a623" class="mono">kana-dojo</text><g class="mono"><rect x="741.0" y="363" width="12.0" height="14" rx="7" fill="#a371f7" stroke="#a371f7" class="grow" style="animation-delay:0.95s"/><circle cx="741.0" cy="370" r="3" fill="#e6edf3"/><circle cx="753.0" cy="370" r="4.5" fill="#070a12" stroke="#a371f7" stroke-width="2"/><text x="733.0" y="374" font-size="10.5" text-anchor="end" fill="#8592ad">#31602 · merged in 5h</text></g><rect x="12" y="389" width="876" height="36" rx="6" fill="#101828" fill-opacity=".45"/><text x="28" y="406" font-size="12" fill="#f5a623" class="mono">type-your-name-…</text><g class="mono"><rect x="841.0" y="399" width="12.0" height="14" rx="7" fill="#a371f7" stroke="#a371f7" class="grow" style="animation-delay:1.03s"/><circle cx="841.0" cy="406" r="3" fill="#e6edf3"/><circle cx="853.0" cy="406" r="4.5" fill="#070a12" stroke="#a371f7" stroke-width="2"/><text x="833.0" y="410" font-size="10.5" text-anchor="end" fill="#8592ad">#52 · merged in 20m</text></g><text x="28" y="442" font-size="12" fill="#f5a623" class="mono">vscode</text><g class="mono"><rect x="859.7" y="435" width="12.0" height="14" rx="7" fill="url(#stripe)" stroke="#3fb950" class="grow" style="animation-delay:1.11s"/><circle cx="859.7" cy="442" r="3" fill="#e6edf3"/><text x="851.7" y="446" font-size="10.5" text-anchor="end" fill="#8592ad">#340113 · open 10m</text></g><line x1="860.0" y1="78" x2="860.0" y2="474" stroke="#f5a623" stroke-dasharray="3 3"/><circle cx="860.0" cy="78" r="4" fill="#f5a623" class="ping"/><circle cx="860.0" cy="78" r="4" fill="#f5a623"/><text x="852.0" y="68" font-size="10" text-anchor="end" fill="#f5a623" class="mono" font-weight="700">now</text><g class="mono" font-size="10.5" fill="#8592ad"><rect x="28" y="487" width="22" height="10" rx="5" fill="#a371f7"/><text x="58" y="496">opened → merged</text><rect x="190" y="487" width="22" height="10" rx="5" fill="url(#stripe)" stroke="#3fb950"/><text x="220" y="496">still in review</text></g></svg>
