<svg xmlns="http://www.w3.org/2000/svg" width="900" height="550" viewBox="0 0 900 550" role="img" aria-label="Timeline of my upstream pull requests"><title>Timeline of my upstream pull requests</title><defs><pattern id="grid" width="24" height="24" patternUnits="userSpaceOnUse"><path d="M24 0H0V24" fill="none" stroke="#1f2a40" stroke-width=".5" opacity=".45"/></pattern>
<pattern id="stripe" width="8" height="8" patternUnits="userSpaceOnUse" patternTransform="rotate(45)">
<rect width="8" height="8" fill="#3fb950" fill-opacity=".18"/><rect width="3" height="8" fill="#3fb950" fill-opacity=".55"/>
<animateTransform attributeName="patternTransform" type="translate" from="0 0" to="8 0" dur="0.8s" additive="sum" repeatCount="indefinite"/></pattern>
<style>.mono{font-family:ui-monospace,SFMono-Regular,'SF Mono',Menlo,Consolas,'Liberation Mono',monospace}
.in{opacity:0;animation:in .6s ease-out forwards}
@keyframes in{from{opacity:0;transform:translateY(6px)}to{opacity:1;transform:none}}
.grow{transform-box:fill-box;transform-origin:left;transform:scaleX(0);animation:grow 1s cubic-bezier(.2,.8,.2,1) forwards}
@keyframes grow{to{transform:scaleX(1)}}
.ping{transform-box:fill-box;transform-origin:center;animation:ping 1.8s ease-out infinite}
@keyframes ping{from{opacity:.8;transform:scale(1)}to{opacity:0;transform:scale(3)}}
</style></defs><rect width="900" height="550" rx="14" fill="#070a12"/><rect width="900" height="550" rx="14" fill="url(#grid)"/><rect x=".5" y=".5" width="899" height="549" rx="14" fill="none" stroke="#1f2a40"/><g class="mono"><circle cx="24" cy="22" r="5" fill="#ff5f57"/><circle cx="41" cy="22" r="5" fill="#febc2e"/><circle cx="58" cy="22" r="5" fill="#28c840"/><text x="450.0" y="26" font-size="11.5" text-anchor="middle" fill="#8592ad">git log --graph --since=journey-start</text></g><line x1="0" y1="42" x2="900" y2="42" stroke="#1f2a40"/><line x1="170.0" y1="74" x2="170.0" y2="510" stroke="#1f2a40" stroke-width="1"/><text x="170.0" y="68" font-size="10" text-anchor="middle" fill="#4a5672" class="mono">Sep 21</text><line x1="211.7" y1="74" x2="211.7" y2="510" stroke="#1f2a40" stroke-width="0.4"/><line x1="253.3" y1="74" x2="253.3" y2="510" stroke="#1f2a40" stroke-width="1"/><text x="253.3" y="68" font-size="10" text-anchor="middle" fill="#4a5672" class="mono">Sep 23</text><line x1="295.0" y1="74" x2="295.0" y2="510" stroke="#1f2a40" stroke-width="0.4"/><line x1="336.6" y1="74" x2="336.6" y2="510" stroke="#1f2a40" stroke-width="1"/><text x="336.6" y="68" font-size="10" text-anchor="middle" fill="#4a5672" class="mono">Sep 25</text><line x1="378.3" y1="74" x2="378.3" y2="510" stroke="#1f2a40" stroke-width="0.4"/><line x1="419.9" y1="74" x2="419.9" y2="510" stroke="#1f2a40" stroke-width="1"/><text x="419.9" y="68" font-size="10" text-anchor="middle" fill="#4a5672" class="mono">Sep 27</text><line x1="461.6" y1="74" x2="461.6" y2="510" stroke="#1f2a40" stroke-width="0.4"/><line x1="503.2" y1="74" x2="503.2" y2="510" stroke="#1f2a40" stroke-width="1"/><text x="503.2" y="68" font-size="10" text-anchor="middle" fill="#4a5672" class="mono">Sep 29</text><line x1="544.9" y1="74" x2="544.9" y2="510" stroke="#1f2a40" stroke-width="0.4"/><line x1="586.5" y1="74" x2="586.5" y2="510" stroke="#1f2a40" stroke-width="1"/><text x="586.5" y="68" font-size="10" text-anchor="middle" fill="#4a5672" class="mono">Oct 01</text><line x1="628.2" y1="74" x2="628.2" y2="510" stroke="#1f2a40" stroke-width="0.4"/><line x1="669.9" y1="74" x2="669.9" y2="510" stroke="#1f2a40" stroke-width="1"/><text x="669.9" y="68" font-size="10" text-anchor="middle" fill="#4a5672" class="mono">Oct 03</text><line x1="711.5" y1="74" x2="711.5" y2="510" stroke="#1f2a40" stroke-width="0.4"/><line x1="753.2" y1="74" x2="753.2" y2="510" stroke="#1f2a40" stroke-width="1"/><text x="753.2" y="68" font-size="10" text-anchor="middle" fill="#4a5672" class="mono">Oct 05</text><line x1="794.8" y1="74" x2="794.8" y2="510" stroke="#1f2a40" stroke-width="0.4"/><line x1="836.5" y1="74" x2="836.5" y2="510" stroke="#1f2a40" stroke-width="1"/><text x="836.5" y="68" font-size="10" text-anchor="middle" fill="#4a5672" class="mono">Oct 07</text><rect x="12" y="85" width="876" height="36" rx="6" fill="#101828" fill-opacity=".45"/><text x="28" y="102" font-size="12" fill="#f5a623" class="mono">workbook</text><g class="mono"><rect x="194.6" y="95" width="40.5" height="14" rx="7" fill="#a371f7" stroke="#a371f7" class="grow" style="animation-delay:0.15s"/><circle cx="194.6" cy="102" r="3" fill="#e6edf3"/><circle cx="235.1" cy="102" r="4.5" fill="#070a12" stroke="#a371f7" stroke-width="2"/><text x="244.1" y="106" font-size="10.5" text-anchor="start" fill="#8592ad">#11 · merged in 23h</text></g><text x="28" y="149" font-size="12" fill="#f5a623" class="mono">DevForge</text><g class="mono"><rect x="260.9" y="131" width="12.0" height="14" rx="7" fill="#a371f7" stroke="#a371f7" class="grow" style="animation-delay:0.23s"/><circle cx="260.9" cy="138" r="3" fill="#e6edf3"/><circle cx="272.9" cy="138" r="4.5" fill="#070a12" stroke="#a371f7" stroke-width="2"/><text x="281.9" y="142" font-size="10.5" text-anchor="start" fill="#8592ad">#146 · merged in 12m</text></g><g class="mono"><rect x="264.2" y="153" width="12.0" height="14" rx="7" fill="#a371f7" stroke="#a371f7" class="grow" style="animation-delay:0.31s"/><circle cx="264.2" cy="160" r="3" fill="#e6edf3"/><circle cx="276.2" cy="160" r="4.5" fill="#070a12" stroke="#a371f7" stroke-width="2"/><text x="285.2" y="164" font-size="10.5" text-anchor="start" fill="#8592ad">#152 · merged in 10m</text></g><rect x="12" y="179" width="876" height="102" rx="6" fill="#101828" fill-opacity=".45"/><text x="28" y="229" font-size="12" fill="#f5a623" class="mono">nvm</text><g class="mono"><rect x="594.4" y="189" width="265.6" height="14" rx="7" fill="url(#stripe)" stroke="#3fb950" class="grow" style="animation-delay:0.39s"/><circle cx="594.4" cy="196" r="3" fill="#e6edf3"/><text x="586.4" y="200" font-size="10.5" text-anchor="end" fill="#8592ad">#3937 · open 6d</text></g><g class="mono"><rect x="681.1" y="211" width="178.9" height="14" rx="7" fill="url(#stripe)" stroke="#3fb950" class="grow" style="animation-delay:0.47s"/><circle cx="681.1" cy="218" r="3" fill="#e6edf3"/><text x="673.1" y="222" font-size="10.5" text-anchor="end" fill="#8592ad">#3941 · open 4d</text></g><g class="mono"><rect x="705.1" y="233" width="154.9" height="14" rx="7" fill="url(#stripe)" stroke="#3fb950" class="grow" style="animation-delay:0.55s"/><circle cx="705.1" cy="240" r="3" fill="#e6edf3"/><text x="697.1" y="244" font-size="10.5" text-anchor="end" fill="#8592ad">#3944 · open 4d</text></g><g class="mono"><rect x="706.1" y="255" width="153.9" height="14" rx="7" fill="url(#stripe)" stroke="#3fb950" class="grow" style="animation-delay:0.63s"/><circle cx="706.1" cy="262" r="3" fill="#e6edf3"/><text x="698.1" y="266" font-size="10.5" text-anchor="end" fill="#8592ad">#3945 · open 4d</text></g><text x="28" y="298" font-size="12" fill="#f5a623" class="mono">avenx-js</text><g class="mono"><rect x="710.1" y="291" width="16.9" height="14" rx="7" fill="#a371f7" stroke="#a371f7" class="grow" style="animation-delay:0.71s"/><circle cx="710.1" cy="298" r="3" fill="#e6edf3"/><circle cx="727.0" cy="298" r="4.5" fill="#070a12" stroke="#a371f7" stroke-width="2"/><text x="736.0" y="302" font-size="10.5" text-anchor="start" fill="#8592ad">#1411 · merged in 10h</text></g><rect x="12" y="317" width="876" height="36" rx="6" fill="#101828" fill-opacity=".45"/><text x="28" y="334" font-size="12" fill="#f5a623" class="mono">libredb-studio</text><g class="mono"><rect x="711.2" y="327" width="24.6" height="14" rx="7" fill="#a371f7" stroke="#a371f7" class="grow" style="animation-delay:0.79s"/><circle cx="711.2" cy="334" r="3" fill="#e6edf3"/><circle cx="735.7" cy="334" r="4.5" fill="#070a12" stroke="#a371f7" stroke-width="2"/><text x="744.7" y="338" font-size="10.5" text-anchor="start" fill="#8592ad">#1302 · merged in 14h</text></g><g class="mono"><rect x="784.5" y="327" width="30.7" height="14" rx="7" fill="#a371f7" stroke="#a371f7" class="grow" style="animation-delay:0.87s"/><circle cx="784.5" cy="334" r="3" fill="#e6edf3"/><circle cx="815.2" cy="334" r="4.5" fill="#070a12" stroke="#a371f7" stroke-width="2"/><text x="776.5" y="338" font-size="10.5" text-anchor="end" fill="#8592ad">#1545 · merged in 18h</text></g><text x="28" y="370" font-size="12" fill="#f5a623" class="mono">kana-dojo</text><g class="mono"><rect x="713.6" y="363" width="12.0" height="14" rx="7" fill="#a371f7" stroke="#a371f7" class="grow" style="animation-delay:0.95s"/><circle cx="713.6" cy="370" r="3" fill="#e6edf3"/><circle cx="725.6" cy="370" r="4.5" fill="#070a12" stroke="#a371f7" stroke-width="2"/><text x="734.6" y="374" font-size="10.5" text-anchor="start" fill="#8592ad">#31602 · merged in 5h</text></g><rect x="12" y="389" width="876" height="36" rx="6" fill="#101828" fill-opacity=".45"/><text x="28" y="406" font-size="12" fill="#f5a623" class="mono">type-your-name-…</text><g class="mono"><rect x="808.8" y="399" width="12.0" height="14" rx="7" fill="#a371f7" stroke="#a371f7" class="grow" style="animation-delay:1.03s"/><circle cx="808.8" cy="406" r="3" fill="#e6edf3"/><circle cx="820.8" cy="406" r="4.5" fill="#070a12" stroke="#a371f7" stroke-width="2"/><text x="800.8" y="410" font-size="10.5" text-anchor="end" fill="#8592ad">#52 · merged in 20m</text></g><text x="28" y="442" font-size="12" fill="#f5a623" class="mono">vscode</text><g class="mono"><rect x="826.6" y="435" width="33.4" height="14" rx="7" fill="url(#stripe)" stroke="#3fb950" class="grow" style="animation-delay:1.11s"/><circle cx="826.6" cy="442" r="3" fill="#e6edf3"/><text x="818.6" y="446" font-size="10.5" text-anchor="end" fill="#8592ad">#340113 · open 19h</text></g><rect x="12" y="461" width="876" height="36" rx="6" fill="#101828" fill-opacity=".45"/><text x="28" y="478" font-size="12" fill="#f5a623" class="mono">freeCodeCamp</text><g class="mono"><rect x="827.1" y="471" width="32.9" height="14" rx="7" fill="url(#stripe)" stroke="#3fb950" class="grow" style="animation-delay:1.19s"/><circle cx="827.1" cy="478" r="3" fill="#e6edf3"/><text x="819.1" y="482" font-size="10.5" text-anchor="end" fill="#8592ad">#70718 · open 19h</text></g><line x1="860.0" y1="78" x2="860.0" y2="510" stroke="#f5a623" stroke-dasharray="3 3"/><circle cx="860.0" cy="78" r="4" fill="#f5a623" class="ping"/><circle cx="860.0" cy="78" r="4" fill="#f5a623"/><text x="852.0" y="68" font-size="10" text-anchor="end" fill="#f5a623" class="mono" font-weight="700">now</text><g class="mono" font-size="10.5" fill="#8592ad"><rect x="28" y="523" width="22" height="10" rx="5" fill="#a371f7"/><text x="58" y="532">opened → merged</text><rect x="190" y="523" width="22" height="10" rx="5" fill="url(#stripe)" stroke="#3fb950"/><text x="220" y="532">still in review</text></g></svg>
