<svg xmlns="http://www.w3.org/2000/svg" width="900" height="442" viewBox="0 0 900 442" role="img" aria-label="Timeline of my upstream pull requests"><title>Timeline of my upstream pull requests</title><defs><pattern id="grid" width="24" height="24" patternUnits="userSpaceOnUse"><path d="M24 0H0V24" fill="none" stroke="#1f2a40" stroke-width=".5" opacity=".45"/></pattern>
<pattern id="stripe" width="8" height="8" patternUnits="userSpaceOnUse" patternTransform="rotate(45)">
<rect width="8" height="8" fill="#3fb950" fill-opacity=".18"/><rect width="3" height="8" fill="#3fb950" fill-opacity=".55"/>
<animateTransform attributeName="patternTransform" type="translate" from="0 0" to="8 0" dur="0.8s" additive="sum" repeatCount="indefinite"/></pattern>
<style>.mono{font-family:ui-monospace,SFMono-Regular,'SF Mono',Menlo,Consolas,'Liberation Mono',monospace}
.in{opacity:0;animation:in .6s ease-out forwards}
@keyframes in{from{opacity:0;transform:translateY(6px)}to{opacity:1;transform:none}}
.grow{transform-box:fill-box;transform-origin:left;transform:scaleX(0);animation:grow 1s cubic-bezier(.2,.8,.2,1) forwards}
@keyframes grow{to{transform:scaleX(1)}}
.ping{transform-box:fill-box;transform-origin:center;animation:ping 1.8s ease-out infinite}
@keyframes ping{from{opacity:.8;transform:scale(1)}to{opacity:0;transform:scale(3)}}
</style></defs><rect width="900" height="442" rx="14" fill="#070a12"/><rect width="900" height="442" rx="14" fill="url(#grid)"/><rect x=".5" y=".5" width="899" height="441" rx="14" fill="none" stroke="#1f2a40"/><g class="mono"><circle cx="24" cy="22" r="5" fill="#ff5f57"/><circle cx="41" cy="22" r="5" fill="#febc2e"/><circle cx="58" cy="22" r="5" fill="#28c840"/><text x="450.0" y="26" font-size="11.5" text-anchor="middle" fill="#8592ad">git log --graph --since=journey-start</text></g><line x1="0" y1="42" x2="900" y2="42" stroke="#1f2a40"/><line x1="170.0" y1="74" x2="170.0" y2="402" stroke="#1f2a40" stroke-width="1"/><text x="170.0" y="68" font-size="10" text-anchor="middle" fill="#4a5672" class="mono">Sep 21</text><line x1="220.3" y1="74" x2="220.3" y2="402" stroke="#1f2a40" stroke-width="0.4"/><line x1="270.6" y1="74" x2="270.6" y2="402" stroke="#1f2a40" stroke-width="1"/><text x="270.6" y="68" font-size="10" text-anchor="middle" fill="#4a5672" class="mono">Sep 23</text><line x1="320.9" y1="74" x2="320.9" y2="402" stroke="#1f2a40" stroke-width="0.4"/><line x1="371.2" y1="74" x2="371.2" y2="402" stroke="#1f2a40" stroke-width="1"/><text x="371.2" y="68" font-size="10" text-anchor="middle" fill="#4a5672" class="mono">Sep 25</text><line x1="421.5" y1="74" x2="421.5" y2="402" stroke="#1f2a40" stroke-width="0.4"/><line x1="471.8" y1="74" x2="471.8" y2="402" stroke="#1f2a40" stroke-width="1"/><text x="471.8" y="68" font-size="10" text-anchor="middle" fill="#4a5672" class="mono">Sep 27</text><line x1="522.1" y1="74" x2="522.1" y2="402" stroke="#1f2a40" stroke-width="0.4"/><line x1="572.4" y1="74" x2="572.4" y2="402" stroke="#1f2a40" stroke-width="1"/><text x="572.4" y="68" font-size="10" text-anchor="middle" fill="#4a5672" class="mono">Sep 29</text><line x1="622.8" y1="74" x2="622.8" y2="402" stroke="#1f2a40" stroke-width="0.4"/><line x1="673.1" y1="74" x2="673.1" y2="402" stroke="#1f2a40" stroke-width="1"/><text x="673.1" y="68" font-size="10" text-anchor="middle" fill="#4a5672" class="mono">Oct 01</text><line x1="723.4" y1="74" x2="723.4" y2="402" stroke="#1f2a40" stroke-width="0.4"/><line x1="773.7" y1="74" x2="773.7" y2="402" stroke="#1f2a40" stroke-width="1"/><text x="773.7" y="68" font-size="10" text-anchor="middle" fill="#4a5672" class="mono">Oct 03</text><line x1="824.0" y1="74" x2="824.0" y2="402" stroke="#1f2a40" stroke-width="0.4"/><rect x="12" y="85" width="876" height="36" rx="6" fill="#101828" fill-opacity=".45"/><text x="28" y="102" font-size="12" fill="#f5a623" class="mono">workbook</text><g class="mono"><rect x="199.7" y="95" width="48.9" height="14" rx="7" fill="#a371f7" stroke="#a371f7" class="grow" style="animation-delay:0.15s"/><circle cx="199.7" cy="102" r="3" fill="#e6edf3"/><circle cx="248.6" cy="102" r="4.5" fill="#070a12" stroke="#a371f7" stroke-width="2"/><text x="257.6" y="106" font-size="10.5" text-anchor="start" fill="#8592ad">#11 · merged in 23h</text></g><text x="28" y="149" font-size="12" fill="#f5a623" class="mono">DevForge</text><g class="mono"><rect x="279.8" y="131" width="12.0" height="14" rx="7" fill="#a371f7" stroke="#a371f7" class="grow" style="animation-delay:0.23s"/><circle cx="279.8" cy="138" r="3" fill="#e6edf3"/><circle cx="291.8" cy="138" r="4.5" fill="#070a12" stroke="#a371f7" stroke-width="2"/><text x="300.8" y="142" font-size="10.5" text-anchor="start" fill="#8592ad">#146 · merged in 12m</text></g><g class="mono"><rect x="283.8" y="153" width="12.0" height="14" rx="7" fill="#a371f7" stroke="#a371f7" class="grow" style="animation-delay:0.31s"/><circle cx="283.8" cy="160" r="3" fill="#e6edf3"/><circle cx="295.8" cy="160" r="4.5" fill="#070a12" stroke="#a371f7" stroke-width="2"/><text x="304.8" y="164" font-size="10.5" text-anchor="start" fill="#8592ad">#152 · merged in 10m</text></g><rect x="12" y="179" width="876" height="102" rx="6" fill="#101828" fill-opacity=".45"/><text x="28" y="229" font-size="12" fill="#f5a623" class="mono">nvm</text><g class="mono"><rect x="682.6" y="189" width="177.4" height="14" rx="7" fill="url(#stripe)" stroke="#3fb950" class="grow" style="animation-delay:0.39s"/><circle cx="682.6" cy="196" r="3" fill="#e6edf3"/><text x="674.6" y="200" font-size="10.5" text-anchor="end" fill="#8592ad">#3937 · open 4d</text></g><g class="mono"><rect x="787.3" y="211" width="72.7" height="14" rx="7" fill="url(#stripe)" stroke="#3fb950" class="grow" style="animation-delay:0.47s"/><circle cx="787.3" cy="218" r="3" fill="#e6edf3"/><text x="779.3" y="222" font-size="10.5" text-anchor="end" fill="#8592ad">#3941 · open 35h</text></g><g class="mono"><rect x="816.2" y="233" width="43.8" height="14" rx="7" fill="url(#stripe)" stroke="#3fb950" class="grow" style="animation-delay:0.55s"/><circle cx="816.2" cy="240" r="3" fill="#e6edf3"/><text x="808.2" y="244" font-size="10.5" text-anchor="end" fill="#8592ad">#3944 · open 21h</text></g><g class="mono"><rect x="817.5" y="255" width="42.5" height="14" rx="7" fill="url(#stripe)" stroke="#3fb950" class="grow" style="animation-delay:0.63s"/><circle cx="817.5" cy="262" r="3" fill="#e6edf3"/><text x="809.5" y="266" font-size="10.5" text-anchor="end" fill="#8592ad">#3945 · open 20h</text></g><text x="28" y="298" font-size="12" fill="#f5a623" class="mono">avenx-js</text><g class="mono"><rect x="822.3" y="291" width="20.4" height="14" rx="7" fill="#a371f7" stroke="#a371f7" class="grow" style="animation-delay:0.71s"/><circle cx="822.3" cy="298" r="3" fill="#e6edf3"/><circle cx="842.6" cy="298" r="4.5" fill="#070a12" stroke="#a371f7" stroke-width="2"/><text x="814.3" y="302" font-size="10.5" text-anchor="end" fill="#8592ad">#1411 · merged in 10h</text></g><rect x="12" y="317" width="876" height="36" rx="6" fill="#101828" fill-opacity=".45"/><text x="28" y="334" font-size="12" fill="#f5a623" class="mono">libredb-studio</text><g class="mono"><rect x="823.6" y="327" width="29.7" height="14" rx="7" fill="#a371f7" stroke="#a371f7" class="grow" style="animation-delay:0.79s"/><circle cx="823.6" cy="334" r="3" fill="#e6edf3"/><circle cx="853.2" cy="334" r="4.5" fill="#070a12" stroke="#a371f7" stroke-width="2"/><text x="815.6" y="338" font-size="10.5" text-anchor="end" fill="#8592ad">#1302 · merged in 14h</text></g><text x="28" y="370" font-size="12" fill="#f5a623" class="mono">kana-dojo</text><g class="mono"><rect x="826.4" y="363" width="12.0" height="14" rx="7" fill="#a371f7" stroke="#a371f7" class="grow" style="animation-delay:0.87s"/><circle cx="826.4" cy="370" r="3" fill="#e6edf3"/><circle cx="838.4" cy="370" r="4.5" fill="#070a12" stroke="#a371f7" stroke-width="2"/><text x="818.4" y="374" font-size="10.5" text-anchor="end" fill="#8592ad">#31602 · merged in 5h</text></g><line x1="860.0" y1="78" x2="860.0" y2="402" stroke="#f5a623" stroke-dasharray="3 3"/><circle cx="860.0" cy="78" r="4" fill="#f5a623" class="ping"/><circle cx="860.0" cy="78" r="4" fill="#f5a623"/><text x="852.0" y="68" font-size="10" text-anchor="end" fill="#f5a623" class="mono" font-weight="700">now</text><g class="mono" font-size="10.5" fill="#8592ad"><rect x="28" y="415" width="22" height="10" rx="5" fill="#a371f7"/><text x="58" y="424">opened → merged</text><rect x="190" y="415" width="22" height="10" rx="5" fill="url(#stripe)" stroke="#3fb950"/><text x="220" y="424">still in review</text></g></svg>
